<svg id="visual" viewBox="0 0 900 450" width="900" height="450" xmlns="http://www.w3.org/2000/svg" xmlns:xlink="http://www.w3.org/1999/xlink" version="1.1"><path d="M0 323L30 332.5C60 342 120 361 180 368.8C240 376.7 300 373.3 360 366.2C420 359 480 348 540 342.3C600 336.7 660 336.3 720 341C780 345.7 840 355.3 870 360.2L900 365L900 451L870 451C840 451 780 451 720 451C660 451 600 451 540 451C480 451 420 451 360 451C300 451 240 451 180 451C120 451 60 451 30 451L0 451Z" fill="#fbae3c"></path><path d="M0 397L30 399.2C60 401.3 120 405.7 180 405.3C240 405 300 400 360 395C420 390 480 385 540 387.3C600 389.7 660 399.3 720 396.8C780 394.3 840 379.7 870 372.3L900 365L900 451L870 451C840 451 780 451 720 451C660 451 600 451 540 451C480 451 420 451 360 451C300 451 240 451 180 451C120 451 60 451 30 451L0 451Z" fill="#fbae3c"></path><path d="M0 404L30 407.8C60 411.7 120 419.3 180 424.3C240 429.3 300 431.7 360 432.2C420 432.7 480 431.3 540 430.7C600 430 660 430 720 431.8C780 433.7 840 437.3 870 439.2L900 441L900 451L870 451C840 451 780 451 720 451C660 451 600 451 540 451C480 451 420 451 360 451C300 451 240 451 180 451C120 451 60 451 30 451L0 451Z" fill="#fbae3c"></path></svg>